<svg xmlns="http://www.w3.org/2000/svg" xmlns:xlink="http://www.w3.org/1999/xlink" width="50" height="50" viewBox="0 0 50 50">
  <defs>
    <linearGradient id="linear-gradient" x1="0.5" x2="0.5" y2="1" gradientUnits="objectBoundingBox">
      <stop offset="0" stop-color="#f68e13"/>
      <stop offset="0.469" stop-color="#ed5803"/>
      <stop offset="1" stop-color="#ec6e08"/>
    </linearGradient>
  </defs>
  <g id="Group_60" data-name="Group 60" transform="translate(-416 -22)">
    <rect id="Rectangle_154" data-name="Rectangle 154" width="50" height="50" rx="10" transform="translate(416 22)" fill="none"/>
    <g id="cart" transform="translate(425 32.012)">
      <path id="Path_243" data-name="Path 243" d="M0,7.732c3.462,0,6.912.023,10.373.035h1.042c-.648,1.03-1.2,1.957-1.818,2.848-.1.151-.463.162-.695.162H.845c-.278,0-.556.023-.834.035V7.72Z" transform="translate(0 1.22)" fill="url(#linear-gradient)"/>
      <path id="Path_244" data-name="Path 244" d="M0,12.95H7.653c-.625.984-1.169,1.864-1.748,2.732a.718.718,0,0,1-.521.243c-1.794,0-3.589-.012-5.383-.023V12.95Z" transform="translate(0 2.045)" fill="url(#linear-gradient)"/>
      <path id="Path_245" data-name="Path 245" d="M16.41,6.011c-2.779,0-5.418-.023-8.058,0a1.706,1.706,0,0,1-1.91-1.285C6.095,3.533,5.585,2.734,4.08,2.977A1.388,1.388,0,0,1,2.61,1.519,1.457,1.457,0,0,1,4,.037C4.9-.021,5.829-.021,6.732,0A1.472,1.472,0,0,1,8.1.951a1.412,1.412,0,0,1,.081.2c.313,1.632,1.308,1.933,2.883,1.91,6.46-.1,12.909-.046,19.369-.046h.556a1.465,1.465,0,0,1,1.343,2.211q-2.709,4.949-5.488,9.864a2.957,2.957,0,0,1-2.8,1.412q-5.019,0-10.038-.012a1,1,0,0,0-1.007.556c-.44.787-.938,1.528-1.505,2.431H27.745c1.1,0,1.76.533,1.783,1.447A1.433,1.433,0,0,1,28.2,22.439c-.162.012-.324.012-.486.012H11.918a3.093,3.093,0,0,1-3.265-2.5A3.229,3.229,0,0,1,9.2,17.484q3.386-5.366,6.761-10.744c.139-.208.255-.428.452-.764Z" transform="translate(0.412 0)" fill="url(#linear-gradient)"/>
      <path id="Path_246" data-name="Path 246" d="M7.76,23.719a3,3,0,1,1,6,.023,3.045,3.045,0,0,1-3.022,2.975A3.009,3.009,0,0,1,7.76,23.719Z" transform="translate(1.224 3.27)" fill="url(#linear-gradient)"/>
      <path id="Path_247" data-name="Path 247" d="M26.672,23.719a2.981,2.981,0,1,1-2.975-3A3,3,0,0,1,26.672,23.719Z" transform="translate(3.267 3.27)" fill="url(#linear-gradient)"/>
    </g>
  </g>
</svg>
