<svg xmlns="http://www.w3.org/2000/svg" xmlns:xlink="http://www.w3.org/1999/xlink" width="50" height="50" viewBox="0 0 50 50">
  <defs>
    <linearGradient id="linear-gradient" x1="0.5" x2="0.5" y2="1" gradientUnits="objectBoundingBox">
      <stop offset="0" stop-color="#f68e13"/>
      <stop offset="0.469" stop-color="#ed5803"/>
      <stop offset="1" stop-color="#ec6e08"/>
    </linearGradient>
  </defs>
  <g id="Group_58" data-name="Group 58" transform="translate(-92 -23)">
    <rect id="Rectangle_152" data-name="Rectangle 152" width="50" height="50" rx="10" transform="translate(92 23)" fill="none"/>
    <g id="home" transform="translate(101.012 32.994)">
      <path id="Path_248" data-name="Path 248" d="M15.809,6.72c2.443,2.046,4.825,4.031,7.2,6.016,2,1.673,4.007,3.321,5.98,5.03a1.623,1.623,0,0,1,.517,1.083c.06,1.612.048,3.225.012,4.825a4.912,4.912,0,0,1-4.969,4.945c-1.2.012-2.394.012-3.6,0A2.473,2.473,0,0,1,18.3,25.984c-.036-1.7,0-3.393,0-5.09,0-1.215-.409-1.612-1.636-1.612-.65,0-1.287-.012-1.937,0a1.244,1.244,0,0,0-1.4,1.42c-.012,1.673,0,3.333,0,5.005,0,1.973-.951,2.912-2.9,2.924-1.2,0-2.394.024-3.6,0a4.876,4.876,0,0,1-4.717-4.645c-.06-1.757-.036-3.513,0-5.27a1.056,1.056,0,0,1,.313-.746c4.428-3.73,8.88-7.436,13.4-11.226Z" transform="translate(0.425 1.365)" fill="url(#linear-gradient)"/>
      <path id="Path_249" data-name="Path 249" d="M24.994,6.34c0-.83-.012-1.468,0-2.094A1.589,1.589,0,0,1,26.7,2.55c2.515-.072,3.405-.108,3.261,3.068-.06,1.432-.036,2.876,0,4.308a1.942,1.942,0,0,0,.469,1.023,9.771,9.771,0,0,0,.987.866,2.593,2.593,0,0,1,.4,3.682,2.5,2.5,0,0,1-3.61.132q-5.577-4.62-11.106-9.3a1.152,1.152,0,0,0-1.793.024C11.626,9.48,7.92,12.561,4.2,15.653a2.475,2.475,0,0,1-3.008.325A2.307,2.307,0,0,1,.075,13.355a3.142,3.142,0,0,1,.951-1.516Q7.541,6.28,14.092.865A3.1,3.1,0,0,1,18.4.889c2.009,1.648,3.995,3.333,5.992,5.005.132.108.277.2.59.445Z" transform="translate(0 0)" fill="url(#linear-gradient)"/>
    </g>
  </g>
</svg>
