<svg xmlns="http://www.w3.org/2000/svg" xmlns:xlink="http://www.w3.org/1999/xlink" width="40" height="40" viewBox="0 0 40 40">
  <defs>
    <linearGradient id="linear-gradient" x1="0.5" x2="0.5" y2="1" gradientUnits="objectBoundingBox">
      <stop offset="0" stop-color="#f68e13"/>
      <stop offset="0.469" stop-color="#ed5803"/>
      <stop offset="1" stop-color="#ec6e08"/>
    </linearGradient>
  </defs>
  <g id="Group_64" data-name="Group 64" transform="translate(-70 -763)">
    <rect id="Rectangle_156" data-name="Rectangle 156" width="40" height="40" transform="translate(70 763)" fill="none"/>
    <path id="Exclusion_1" data-name="Exclusion 1" d="M-2741.048-3303a3,3,0,0,1-2.976-3.01,2.969,2.969,0,0,1,.873-2.119,2.973,2.973,0,0,1,2.115-.868,2.99,2.99,0,0,1,2.974,3A3,3,0,0,1-2741.048-3303Zm-14.972,0h-.021a2.941,2.941,0,0,1-2.1-.887,2.986,2.986,0,0,1-.876-2.111,3.006,3.006,0,0,1,2.976-3h.021a2.981,2.981,0,0,1,2.136.9,2.94,2.94,0,0,1,.863,2.118,3,3,0,0,1-.9,2.1A2.969,2.969,0,0,1-2756.02-3303Zm16.14-7.537h-15.791a3.1,3.1,0,0,1-3.265-2.5,3.2,3.2,0,0,1,.544-2.466c1.945-3.083,4.031-6.4,6.762-10.743.1-.147.186-.3.289-.484l.141-.246h-.1c-.794,0-1.583,0-2.352,0h-.306c-.772,0-1.733,0-2.638,0-1,0-1.84,0-2.639.01h-.047a1.681,1.681,0,0,1-1.862-1.284c-.313-1.076-.749-1.792-1.857-1.792a3.17,3.17,0,0,0-.5.044,1.125,1.125,0,0,1-.187.016,1.431,1.431,0,0,1-1.285-1.475,1.458,1.458,0,0,1,1.391-1.481c.517-.033,1.064-.05,1.674-.05.328,0,.674,0,1.056.015a1.469,1.469,0,0,1,1.366.949.586.586,0,0,0,.037.081.384.384,0,0,1,.045.116c.305,1.591,1.268,1.911,2.722,1.911h.16c2.668-.043,5.483-.062,9.13-.062,1.763,0,3.623,0,5.117.008h.14c1.633,0,3.321.008,4.981.008h.557a1.629,1.629,0,0,1,1.375.768,1.472,1.472,0,0,1-.032,1.443c-1.747,3.193-3.593,6.512-5.487,9.864a2.935,2.935,0,0,1-2.8,1.412c-3.289,0-6.69,0-10.038-.012a1,1,0,0,0-1.007.556c-.313.56-.663,1.108-1.033,1.687l-.006.009-.019.03c-.144.226-.293.459-.448.7h16.255c1.1,0,1.762.541,1.783,1.447a1.432,1.432,0,0,1-1.33,1.517C-2739.555-3310.537-2739.713-3310.537-2739.88-3310.537Zm-8.62-14.149a1,1,0,0,0-1,1,1,1,0,0,0,1,1h1.814v1.814a1,1,0,0,0,1,1,1,1,0,0,0,1-1v-1.814h1.814a1,1,0,0,0,1-1,1,1,0,0,0-1-1h-1.814v-1.814a1,1,0,0,0-1-1,1,1,0,0,0-1,1v1.814Zm-14.117,9.669c-1.781,0-3.591-.012-5.342-.023h-.04v-2.952h7.652c-.179.281-.352.555-.513.811l0,.006c-.42.666-.818,1.294-1.231,1.916A.719.719,0,0,1-2762.618-3315.017Zm-5.372-5.939h0v-3.079h.013c2.289,0,4.611.01,6.856.02h.107l3.386.014h1.041c-.175.278-.344.549-.493.789l0,.008c-.447.718-.868,1.4-1.319,2.052-.1.145-.445.162-.695.162h-8.059c-.188,0-.385.011-.559.021l-.275.014Z" transform="translate(2842 4101)" fill="url(#linear-gradient)"/>
  </g>
</svg>
