<svg xmlns="http://www.w3.org/2000/svg" xmlns:xlink="http://www.w3.org/1999/xlink" width="198" height="198" viewBox="0 0 198 198">
  <defs>
    <filter id="Ellipse_3" x="0" y="0" width="198" height="198" filterUnits="userSpaceOnUse">
      <feOffset dy="3" input="SourceAlpha"/>
      <feGaussianBlur stdDeviation="3" result="blur"/>
      <feFlood flood-opacity="0.161"/>
      <feComposite operator="in" in2="blur"/>
      <feComposite in="SourceGraphic"/>
    </filter>
    <linearGradient id="linear-gradient" x1="0.5" x2="0.5" y2="1" gradientUnits="objectBoundingBox">
      <stop offset="0" stop-color="#f68e13"/>
      <stop offset="0.469" stop-color="#ed5803"/>
      <stop offset="1" stop-color="#ec6e08"/>
    </linearGradient>
  </defs>
  <g id="Group_53" data-name="Group 53" transform="translate(-261 -316)">
    <g transform="matrix(1, 0, 0, 1, 261, 316)" filter="url(#Ellipse_3)">
      <circle id="Ellipse_3-2" data-name="Ellipse 3" cx="90" cy="90" r="90" transform="translate(9 6)" fill="#fff"/>
    </g>
    <g id="Layer_2" data-name="Layer 2" transform="translate(305.499 364.794)">
      <path id="Path_232" data-name="Path 232" d="M73.092,44.774H5V35.046a34.046,34.046,0,1,1,68.092,0ZM14.727,35.046H63.365a24.319,24.319,0,1,0-48.637,0Z" transform="translate(15.455 0)" opacity="0.5" fill="url(#linear-gradient)"/>
      <path id="Path_233" data-name="Path 233" d="M88.547,66.365H20.455A19.455,19.455,0,0,1,1,46.91V27.455A19.455,19.455,0,0,1,20.455,8H88.547A19.455,19.455,0,0,1,108,27.455V46.91A19.455,19.455,0,0,1,88.547,66.365ZM20.455,17.727a9.727,9.727,0,0,0-9.727,9.727V46.91a9.727,9.727,0,0,0,9.727,9.727H88.547a9.727,9.727,0,0,0,9.727-9.727V27.455a9.727,9.727,0,0,0-9.727-9.727Z" transform="translate(0 27.046)" fill="url(#linear-gradient)"/>
      <path id="Path_234" data-name="Path 234" d="M84.683,9H16.591A14.591,14.591,0,0,0,2,23.591V43.046A14.591,14.591,0,0,0,16.591,57.637H84.683A14.591,14.591,0,0,0,99.275,43.046V23.591A14.591,14.591,0,0,0,84.683,9ZM21.455,38.182a4.864,4.864,0,1,1,4.864-4.864A4.864,4.864,0,0,1,21.455,38.182Zm19.455,0a4.864,4.864,0,1,1,4.864-4.864A4.864,4.864,0,0,1,40.91,38.182Zm19.455,0a4.864,4.864,0,1,1,4.864-4.864A4.864,4.864,0,0,1,60.365,38.182Zm19.455,0a4.864,4.864,0,1,1,4.864-4.864A4.864,4.864,0,0,1,79.82,38.182Z" transform="translate(3.864 30.91)" fill="url(#linear-gradient)"/>
    </g>
  </g>
</svg>
