<svg xmlns="http://www.w3.org/2000/svg" xmlns:xlink="http://www.w3.org/1999/xlink" width="40" height="40" viewBox="0 0 40 40">
  <defs>
    <linearGradient id="linear-gradient" x1="0.5" x2="0.5" y2="1" gradientUnits="objectBoundingBox">
      <stop offset="0" stop-color="#f68e13"/>
      <stop offset="0.469" stop-color="#ed5803"/>
      <stop offset="1" stop-color="#ec6e08"/>
    </linearGradient>
  </defs>
  <g id="Group_62" data-name="Group 62" transform="translate(-70 -553)">
    <rect id="Rectangle_156" data-name="Rectangle 156" width="40" height="40" transform="translate(70 553)" fill="none"/>
    <g id="Layer_1" data-name="Layer 1" transform="translate(80.01 557.996)">
      <path id="Path_254" data-name="Path 254" d="M7.506,3.127A2.65,2.65,0,0,1,8.44.574,3.457,3.457,0,0,1,10,.014,1.977,1.977,0,0,1,11.94.96a13.06,13.06,0,0,1,.791,2.167h.5c1.65,0,3.294-.012,4.944.006A1.8,1.8,0,0,1,20,4.9c.012.162,0,.324,0,.486V27.724C20,29.312,19.319,30,17.75,30H2.244C.669,30-.01,29.312-.01,27.724V5.382c0-1.594.666-2.254,2.26-2.254H7.5Zm7.373,16.234A1.787,1.787,0,0,0,13.8,17.618a19.33,19.33,0,0,0-1.837-.81,1.381,1.381,0,0,1-.5-2,9.873,9.873,0,0,0,.772-1.986c.106-.361-.019-.785.05-1.171A1.982,1.982,0,0,0,11.13,9.118a2.416,2.416,0,0,0-2.7.025c-.822.492-.859,1.358-.81,2.223.031.492-.012.984,0,1.476a1.476,1.476,0,0,0,.118.592c.2.411.448.8.666,1.208.7,1.308.187,1.986-.76,2.323a10.053,10.053,0,0,0-1.756.828,1.7,1.7,0,0,0-.866,1.569h9.845Zm-4.838,3.755c1.4,0,2.808.006,4.21,0,.56,0,.928-.386.7-.772a1.09,1.09,0,0,0-.8-.455c-2.765-.031-5.536-.019-8.3-.019-.455,0-.841.106-.834.648.006.511.386.6.81.6h4.21ZM9.985,24.38H5.843c-.455,0-.841.087-.828.635.012.5.374.61.8.61h8.338c.455,0,.841-.1.828-.648-.006-.511-.374-.6-.8-.6-1.4.006-2.8,0-4.2,0ZM11.224,4.958c0-.934.037-1.843-.012-2.746A1.113,1.113,0,0,0,10,1.247a1.116,1.116,0,0,0-1.2.978c-.05.9-.012,1.806-.012,2.734h2.435Z" fill="url(#linear-gradient)"/>
      <path id="Path_255" data-name="Path 255" d="M16.437,3.805c-.237.156-.5.461-.71.436a.845.845,0,0,1-.567-.592c0-.2.355-.536.579-.56s.467.28.7.436Z" transform="translate(-5.723 -1.164)" fill="url(#linear-gradient)"/>
    </g>
  </g>
</svg>
