<svg xmlns="http://www.w3.org/2000/svg" xmlns:xlink="http://www.w3.org/1999/xlink" width="50" height="50" viewBox="0 0 50 50">
  <defs>
    <linearGradient id="linear-gradient" x1="0.5" x2="0.5" y2="1" gradientUnits="objectBoundingBox">
      <stop offset="0" stop-color="#f68e13"/>
      <stop offset="0.469" stop-color="#ed5803"/>
      <stop offset="1" stop-color="#ec6e08"/>
    </linearGradient>
  </defs>
  <g id="Group_61" data-name="Group 61" transform="translate(-578 -22)">
    <rect id="Rectangle_155" data-name="Rectangle 155" width="50" height="50" rx="10" transform="translate(578 22)" fill="none"/>
    <g id="profile" transform="translate(587.003 32.002)">
      <path id="Path_251" data-name="Path 251" d="M20.2,4.927a21.9,21.9,0,0,0-7.2.915c-2.788.959-4.232,3.009-4.4,6.15-.033.562-.022,1.124-.022,1.686A5.3,5.3,0,0,1,8.178,16.2a2.735,2.735,0,0,0,.264,2.711,29.047,29.047,0,0,0,2.149,3.207,2.714,2.714,0,0,1,.551,2.325.932.932,0,0,1-.43.617c-1.675.849-3.372,1.686-5.081,2.48a.856.856,0,0,1-.749-.176A15.242,15.242,0,0,1,.11,14.261a15.724,15.724,0,0,1,13.06-14A15.929,15.929,0,0,1,27.233,27.156a.952.952,0,0,1-1.345.264c-1.466-.771-2.965-1.466-4.452-2.193a1.957,1.957,0,0,1-.6-2.524c.54-.827,1.025-1.686,1.554-2.524a3.425,3.425,0,0,1,.485-.573,3.3,3.3,0,0,0,.65-3.813,3.765,3.765,0,0,1-.264-1.157c-.121-1.444-.132-2.9-.342-4.331a2.417,2.417,0,0,0-1.609-2.226c-.154-.044-.253-.353-.32-.562-.276-.849-.529-1.7-.793-2.579Z" transform="translate(0 0)" fill="url(#linear-gradient)"/>
      <path id="Path_252" data-name="Path 252" d="M14.939,23.039a5.751,5.751,0,0,1-1.1-.441A8.952,8.952,0,0,1,10.1,18.179a1.716,1.716,0,0,0-.54-.683,1.489,1.489,0,0,1-.4-2.094A3.351,3.351,0,0,0,9.5,14.365c.253-1.367.452-2.755.727-4.111.121-.6.507-.816,1.19-.639a13.066,13.066,0,0,0,6.954,0,.827.827,0,0,1,.716.309,32.615,32.615,0,0,1,1.267,3.317c.253.827.121,1.741.65,2.535.386.584.066,1.245-.54,1.73a1.716,1.716,0,0,0-.54.683,8.98,8.98,0,0,1-3.868,4.5,5.5,5.5,0,0,1-1.113.364Z" transform="translate(0.909 0.976)" fill="url(#linear-gradient)"/>
      <path id="Path_253" data-name="Path 253" d="M17.7,22.3c.1,1.565.209,2.987.264,4.408a.693.693,0,0,1-.386.463,7.572,7.572,0,0,1-5.665,0,.682.682,0,0,1-.4-.463c.055-1.422.165-2.843.264-4.419A4.242,4.242,0,0,0,17.7,22.3Z" transform="translate(1.176 2.276)" fill="url(#linear-gradient)"/>
    </g>
  </g>
</svg>
