<svg xmlns="http://www.w3.org/2000/svg" xmlns:xlink="http://www.w3.org/1999/xlink" width="40" height="40" viewBox="0 0 40 40">
  <defs>
    <linearGradient id="linear-gradient" x1="0.5" x2="0.5" y2="1" gradientUnits="objectBoundingBox">
      <stop offset="0" stop-color="#f68e13"/>
      <stop offset="0.469" stop-color="#ed5803"/>
      <stop offset="1" stop-color="#ec6e08"/>
    </linearGradient>
  </defs>
  <g id="Group_65" data-name="Group 65" transform="translate(-70 -868)">
    <rect id="Rectangle_156" data-name="Rectangle 156" width="40" height="40" transform="translate(70 868)" fill="none"/>
    <path id="Path_86" data-name="Path 86" d="M15.668,16.2,12.7,19.153a1.3,1.3,0,1,0,1.833,1.833l5.163-5.163a1.334,1.334,0,0,0,0-1.833L14.532,8.828A1.3,1.3,0,1,0,12.7,10.66l2.968,2.956H3.291a1.291,1.291,0,1,0,0,2.581ZM14.906,2A12.906,12.906,0,0,0,3.291,9.163a1.3,1.3,0,0,0,2.323,1.162,10.378,10.378,0,1,1,.052,9.164A1.3,1.3,0,1,0,3.342,20.65,12.906,12.906,0,1,0,14.906,2Z" transform="translate(75.096 873.092)" fill="url(#linear-gradient)"/>
  </g>
</svg>
