<svg id="Group_1" data-name="Group 1" xmlns="http://www.w3.org/2000/svg" width="374.701" height="255" viewBox="0 0 374.701 255">
  <path id="Path_1" data-name="Path 1" d="M86.542,63.912V83.88c.077,5.99.384,11.981.538,17.894.23,8.678-2.918,13.056-11.213,15.59-7.526,2.3-14.822,1.152-21.58-2.458-5.683-3-8.678-8.141-8.678-14.669V64.373c-.691.23-1.152.384-1.536.538-5.914,2.227-11.6,1.613-17.2-.922-4.608-2.074-9.139-4.378-13.824-6.221-2.15-.845-3-2.074-3.072-4.07C9.82,47.323,9.59,41.026,9.59,34.652c0-3.226,1.843-5.376,4.762-6.681q19.008-8.525,38.015-16.9c2.688-1.229,5.453-2.381,8.141-3.533A10.384,10.384,0,0,1,68.8,7.388Q92.3,16.6,115.8,25.9c2.534,1,5.069,4.992,5.222,7.68.154,3.379.307,6.758.691,10.137.922,6.989-1.459,12.211-7.987,15.053a183.21,183.21,0,0,1-17.74,6.758c-1.613.538-3.763-.307-5.683-.614a35.323,35.323,0,0,1-3.84-1ZM63.349,9.692a11.57,11.57,0,0,0-1.152.461Q38.927,20.405,15.734,30.812A4.729,4.729,0,0,0,12.662,35.5c0,5.606.154,11.213.23,16.819a7.941,7.941,0,0,0,.23.922C24.873,48.4,36.47,43.56,48.22,38.722c.461,23.193.922,45.926,1.382,68.888,4.147-1.613,8.064-3.072,11.827-4.685A5.763,5.763,0,0,0,65.115,97.4c0-1.843.077-3.61,0-5.453-.614-26.649-1.152-53.222-1.766-79.871,0-.691-.077-1.382-.154-2.381ZM45.378,43.176c-10.137,4.3-19.737,8.371-29.721,12.595,6.528,2.611,12.595,5.3,18.816,7.449A7.936,7.936,0,0,0,45.3,56.309c.384-4.224.077-8.525.077-13.133ZM115.5,53.851a1.351,1.351,0,0,0-.077-.461c-9.753-3.61-19.584-7.142-29.26-10.752,0,4.147-.384,8.141.077,11.981.691,6.528,5.3,9.293,11.366,6.989S109.505,56.462,115.5,53.851ZM79.784,109.607c-7.065-6.221-19.2-5.914-25.651.614C62.274,117.21,72.258,116.289,79.784,109.607Z" transform="translate(64.137 44.138)" fill="#fff"/>
  <path id="Path_2" data-name="Path 2" d="M101.05,64.013v1.92c.307,12.518.461,24.96.845,37.478.154,6.067-2.534,10.214-7.833,12.672-8.909,4.07-17.664,3.149-25.881-1.69-5.53-3.226-7.91-8.6-7.833-15.129.154-10.905,0-21.888.077-32.793a19.465,19.465,0,0,0-.077-2c-1.306.384-2.534.845-3.686,1.152-5.069,1.382-9.984.538-14.669-1.536-4.378-1.92-8.678-4.147-13.133-6.067-3.84-1.613-4.454-2.842-3.994-7.142a65.716,65.716,0,0,0,.154-9.523,63.647,63.647,0,0,0-.461-6.528c-.23-3.3,1.459-5.453,4.224-6.681,14.361-6.451,28.8-12.825,43.161-19.2,1.229-.538,2.458-1.075,3.686-1.536a10.03,10.03,0,0,1,7.6-.154C98.976,13.479,114.8,19.623,130.54,25.92c3.456,1.382,4.838,4.454,5.222,7.833.461,4.147.538,8.294.768,12.441.384,5.146-1.613,9.062-6.144,11.366-4.762,2.381-9.83,4.224-14.745,6.451-3.994,1.766-7.987,2.227-12.057.538a12.033,12.033,0,0,0-2.611-.538ZM64.494,107.865c4.378-1.843,8.525-3.456,12.6-5.222a5.258,5.258,0,0,0,2.918-4.915c0-1.92.077-3.84,0-5.76l-1.843-81.33a2.242,2.242,0,0,0-.154-.691c-.307,0-.461,0-.614.154C61.652,17.089,45.831,24.077,30.088,31.066a4.238,4.238,0,0,0-2.611,3.994c-.077,1.229,0,2.534,0,3.84V53.568c12.134-4.992,23.731-9.83,35.635-14.745.461,23.04.922,45.772,1.459,69.042Zm-4.3-64.588c-10.061,4.3-19.737,8.371-29.721,12.595,6.144,2.534,11.9,4.838,17.664,7.142.154,0,.307.154.461.23,5.913,2.15,11.52-1.69,11.6-7.91V43.354Zm70.04,10.752v-.461c-9.753-3.61-19.507-7.142-29.184-10.752,0,4.147-.384,8.141.077,12.057.691,6.374,5.146,9.216,11.136,6.989,6.144-2.3,12.057-5.222,18.048-7.833ZM68.794,110.322c7.3,6.6,20.812,6.144,25.651-.768A19.783,19.783,0,0,0,68.794,110.322Z" transform="translate(163.983 44.037)" fill="#fff"/>
  <path id="Path_3" data-name="Path 3" d="M21.437,74.144v-47c.691,0,1.306-.077,1.843-.077,14.285,0,28.492-.077,42.777.077a20.266,20.266,0,0,1,8.525,1.843c7.987,3.686,9.062,14.361,2.381,20.044-.307.23-.538.461-.845.691a37.617,37.617,0,0,1,3.917,2.3c3.994,2.918,5.146,7.065,4.454,11.75-.614,4.531-3.456,7.526-7.6,9.139a16.939,16.939,0,0,1-6.144,1.306c-16.128.077-32.255,0-48.383,0a4.725,4.725,0,0,1-1-.077ZM39.945,62.932c.538,0,1,.077,1.382.077H63.753c2.227,0,3.61-1.152,3.686-3.072,0-1.92-1.459-3.149-3.763-3.149H41.635a13.018,13.018,0,0,0-1.69.077v6.067Zm0-18.355H61.372a2.879,2.879,0,0,0,2.611-3.149,2.987,2.987,0,0,0-3.072-3.072H40.483c-.154,0-.307.154-.538.23v6.067Z" transform="translate(142.759 180.745)" fill="#fff"/>
  <path id="Path_4" data-name="Path 4" d="M58.178,62.751V74.118H39.9v-47c.614,0,1.306-.077,1.92-.077H85.134a17.792,17.792,0,0,1,9.139,33.177c-.384.23-.845.538-1.382.845,3.3,4.3,6.6,8.6,10.214,13.133H94.581c-3.226,0-6.374.077-9.6,0A3.524,3.524,0,0,1,82.6,73.042c-2.458-3-4.762-6.067-7.142-9.139-.384-.461-1-1.152-1.459-1.152-5.146-.077-10.368,0-15.821,0Zm.154-13.9H80.066c2.765,0,4.608-1.613,4.608-3.994s-1.766-3.994-4.608-3.994H59.791a9.792,9.792,0,0,0-1.459.077v7.833Z" transform="translate(266.604 180.695)" fill="#fff"/>
  <path id="Path_5" data-name="Path 5" d="M102.03,74.271H82.293c-.461,0-1.075-.691-1.306-1.152-.922-1.843-1.766-3.84-2.688-5.683a2.479,2.479,0,0,0-1.536-1.075H55.414a2.433,2.433,0,0,0-1.613,1c-1,1.92-1.843,3.917-2.765,5.913a1.913,1.913,0,0,1-1.229,1H30.07c.23-.614.384-1.075.538-1.459,7.91-14.822,15.9-29.568,23.731-44.39a2.276,2.276,0,0,1,2.227-1.382H75.612a2.506,2.506,0,0,1,2,1.075q12.211,22.579,24.345,45.311c.077.154.077.307.23.768ZM72.386,54.611c-2.074-4.531-4.147-8.985-6.374-13.824-2.227,4.838-4.3,9.216-6.374,13.824H72.463Z" transform="translate(200.941 180.695)" fill="#fff"/>
  <path id="Path_6" data-name="Path 6" d="M129.611,47.15c6.758,3.763,8.064,8.678,4.685,16.128,1.306,1.075,3.072,1.843,3.686,3.149.614,1.229,0,3-.077,4.531,9.062-1,12.365,0,13.209,4.224H30.31c.461-1.536.538-3.149,1.382-4.224a30.575,30.575,0,0,1,5.606-5.3c2.15-1.613,4.531-2.688,6.835-4.147,3-1.843,3.917-4.685,3.072-7.987-.614-2.534-1.536-4.915-2.3-7.219a45.639,45.639,0,0,0,5.683.23c3.379-.307,5.606-2.458,7.68-4.915,1.075-1.229,2.381-2.3,3.533-3.456l.461.23a9.937,9.937,0,0,1-.307,2.688,43.31,43.31,0,0,1-3.3,7.142c-1.92,3.072-4.3,5.913-6.451,8.909-.768,1.075-1.843,2.074-1,3.533.614,1.075,2.765,1.382,4.378.538a24.09,24.09,0,0,0,4.838-3.456,108.775,108.775,0,0,0,9.83-10.829c1.613-2.15,2.227-5.146,3.149-7.833a34.843,34.843,0,0,0,.922-4.07c.461-2,.384-4.07,2.688-5.529,1.152-.768,1.382-3.072,1.843-4.685.614-2.15,1-4.454,1.766-6.681-.23,4.07,1.843,6.989,3.917,10.214,2.842,4.454,3,9.753,1.92,14.9-.922,4.454-3.917,7.449-8.141,8.985-1.152.461-1.613.845-1.613,2.227,0,8.141-2.842,11.213-9.062,13.517-.845.307-1.69.538-2.611.845,3,1.69,9.293,2.227,13.593,1.306,6.451-1.306,11.443-5.222,16.358-9.216,1.075-.845,2.074-1.766,3.226-2.765-.845,5.069-3.379,8.525-7.91,10.214,3.072.538,6.067,1.075,9.216,1.69a43.279,43.279,0,0,1,2.688-3.533,14.611,14.611,0,0,1,7.833-4.915c3.533-.845,5.222.614,4.838,4.3a11.572,11.572,0,0,1-.307,2,13.459,13.459,0,0,0,7.373.845c2.458-.538,3.072-2.534,1.766-5.837a12.763,12.763,0,0,0,7.526-6.3c1.613-3.3,1.459-6.374-1.459-9.446Z" transform="translate(202.544 121.11)" fill="#fff"/>
  <path id="Path_7" data-name="Path 7" d="M72.473,41.892H50.739v32.1H32.461v-32.1H10.65V27.07h61.9v14.9Z" transform="translate(71.217 180.895)" fill="#fff"/>
  <path id="Path_8" data-name="Path 8" d="M42.306,74.061H23.874v-32.1H2.14V27.06H63.963V41.805H42.306V73.984Z" transform="translate(14.372 180.828)" fill="#fff"/>
  <path id="Path_9" data-name="Path 9" d="M105.708,25.926c-5.683-1.229-11.059-2.458-16.512-3.61-3.61-.768-5.146.23-5.914,3.84C82.131,31.609,80.9,36.985,79.75,42.438a8.275,8.275,0,0,1-.461,1.536c-3.379-1.306-6.681-2.611-9.984-3.84-5.376-2.074-10.752-4.224-16.2-6.221A62.589,62.589,0,0,0,46.8,32.3c.768-3.226,1.536-6.681,2.381-10.061s1.69-6.758,2.534-10.368Q73.376,15.213,94.8,18.553v-.307c-17.971-3.917-35.942-7.91-54.066-11.9-.845,3.686-1.613,7.219-2.381,10.752-1.306,5.99-2.688,11.981-3.917,18.048a3.6,3.6,0,0,1-2.688,3.226c-.691.154-1.306.538-2.381.922.384-2,.691-3.686,1.075-5.376,2.15-9.677,4.3-19.353,6.374-28.953.538-2.458,1.459-3.149,3.994-2.611C60.7,6.726,80.672,11.1,100.562,15.481c1.382.307,2.842.538,4.224.922a2.5,2.5,0,0,1,2.15,3.3c-.384,2-.845,3.994-1.306,6.221Z" transform="translate(196.265 14.618)" fill="#fff"/>
  <path id="Path_10" data-name="Path 10" d="M39.165,33.04a4.526,4.526,0,0,1,.922,6.681,1.416,1.416,0,0,1-1,.307c-2.074.077-4.07.23-6.144.307.845-4.992-1.075-9.523-2.227-14.054-.614-2.458-3.072-3.456-5.529-3.763a20.085,20.085,0,0,0-2.15,0c-1.843-5.222-1.843-10.905-4.378-15.9C27.031.246,40.317-1.75,49.994,10c.614-.461,1.306-1,2-1.459,2.688-1.843,5.53-2.074,8.294-.154a1.972,1.972,0,0,0,2.534,0C69.117,4.854,75.8,2.474,83.094,2.7c8.371.23,15.206,3.917,21.12,9.523a2,2,0,0,1,.538,1.536c-.307,1.92-.768,3.763-1.229,5.76a16.912,16.912,0,0,1-1.613-.691c-7.833-3.763-15.974-6.3-24.729-6.067a18.56,18.56,0,0,0-12.749,5.3c-3.149,3-5.146,3.3-8.985,1.459a1.556,1.556,0,0,0-1.536,0c-4.992,4.378-9.83,8.909-14.9,13.44Z" transform="translate(124.723 10.115)" fill="#fff"/>
  <path id="Path_11" data-name="Path 11" d="M86.9,38.218a16.013,16.013,0,0,1-3.61-1.459,3.78,3.78,0,0,1-1.229-2.381c-2-8.755-3.917-17.587-5.837-26.342a10.976,10.976,0,0,0-.461-1.613C57.789,10.34,39.971,14.257,22.077,18.251v.384c14.208-2.227,28.416-4.454,42.854-6.681,1.536,6.528,3.149,12.979,4.685,19.66a5.645,5.645,0,0,0-1.613,0c-2.534.384-5.222.307-7.526,1.229-7.449,3-14.745,6.3-22.118,9.523-.384.154-.768.307-1.382.538-.614-2.534-1.152-4.992-1.69-7.449C34.6,32.3,33.9,29.233,33.213,26.084c-.768-3.3-2.381-4.378-5.837-3.61-4.915,1.075-9.753,2.15-14.669,3.226-.538.154-1.152.154-1.92.307-.461-2.3-1-4.454-1.382-6.6-.23-1.766.922-2.534,2.534-2.918,5.914-1.306,11.827-2.611,17.664-3.84C44.887,9.265,60.17,5.963,75.376,2.584c2.611-.538,3.533,0,4.147,2.611,2.3,10.521,4.685,21.12,6.989,31.641a15.807,15.807,0,0,1,.23,1.613Z" transform="translate(62.708 16.072)" fill="#fff"/>
  <path id="Path_12" data-name="Path 12" d="M59.575,60.546c.922,7.219-.23,14.131-2.074,21.043-2.15,7.757-7.142,12.979-14.208,16.358-2.074,1-4.224,1.69-6.374,2.534,0-.307-.077-.461,0-.538,8.217-6.758,11.366-15.821,11.443-26.112,0-3.533-.077-6.989-.23-10.521,0-2.688.077-3,2.688-3.61a5.873,5.873,0,0,0,4.762-4.838,4.065,4.065,0,0,0-1-3,2.147,2.147,0,0,0-3.072-.307,9.069,9.069,0,0,1-2.842,1.075c-4.608,1.229-8.371-1.536-8.755-6.3a45.964,45.964,0,0,1,1.613-14.131c.614-2.3.461-5.069,1.766-6.912,1.229-1.69,3.763-2.458,5.76-3.686,3.917-2.381,5.837-4.454,8.141-9.139a21.212,21.212,0,0,0,1.229,2.074,32.014,32.014,0,0,1,7.142,15.821c.845,4.838-.691,9.446-2.227,13.977a3.706,3.706,0,0,0,.23,3,23.538,23.538,0,0,1,1.843,5.069c.768,3.686-.538,5.99-4.07,7.449a13.586,13.586,0,0,1-1.69.614Z" transform="translate(246.468 83.369)" fill="#fff"/>
  <path id="Path_13" data-name="Path 13" d="M107.89,35.741c-.154,7.219-3.917,12.134-9.753,15.667a4.026,4.026,0,0,1-1.92.23c-6.451,0-12.9,0-19.353-.23-8.294-.307-16.512.461-24.729,1.075a75.081,75.081,0,0,1-10.982-.461c-1.152-.077-2.3-1-3.3-1.69-4.608-3.149-9.216-6.451-13.824-9.6-3.072-2.074-5.222-4.685-5.683-8.371A16.558,16.558,0,0,1,20.569,21.84c.307,2.534.461,4.838.922,7.065,1.075,4.838,4.224,7.833,8.909,9.369a3,3,0,0,0,3.994-1.459c2.534,4.3,6.451,6.3,10.982,7.449A24.47,24.47,0,0,0,58.662,43.8C50.9,42.96,43.609,41.424,40.844,32.515a18.444,18.444,0,0,0,10.982,4.07,26.66,26.66,0,0,1,16.435,5.837,1.708,1.708,0,0,0,1.613.077,31.987,31.987,0,0,1,15.9-1.229,13.914,13.914,0,0,1,5.606,2.611c3.686,2.688,6.6,2.918,9.907-.154a57.7,57.7,0,0,0,5.683-6.528c.384-.461.691-1.075,1.075-1.613Z" transform="translate(121.585 145.959)" fill="#fff"/>
  <path id="Path_14" data-name="Path 14" d="M53.968,32.575c-4.378-1.766-8.525-3.456-12.672-5.146-1.69-.691-4.07-1.075-4.838-2.381-.691-1.229.461-3.456.845-5.146.845-4.07,1.766-8.141,2.611-12.211.614-2.842.614-2.842,3.379-2.227,4.685,1.075,9.446,2.074,14.131,3.072.538.077,1,.307,1.69.461C57.424,16.832,55.658,24.665,53.968,32.575ZM48.055,13.452a2.668,2.668,0,0,0-2.611,2.458,2.609,2.609,0,0,0,2.534,2.534,2.409,2.409,0,0,0,2.458-2.381A2.5,2.5,0,0,0,48.055,13.452Z" transform="translate(242.168 34.387)" fill="#fff"/>
  <path id="Path_15" data-name="Path 15" d="M9.66,9.132c5.914-1.306,11.6-2.534,17.28-3.763,1.152-.23,1.536.461,1.69,1.382,1.229,5.53,2.458,11.059,3.61,16.589a1.775,1.775,0,0,1-.384,1.306c-5.606,2.611-11.289,5.146-17.049,7.68C13.116,24.492,11.426,16.889,9.66,9.132Zm13.67,7.219a2.492,2.492,0,0,0-2.458-2.534,2.461,2.461,0,0,0-2.534,2.3,2.726,2.726,0,0,0,2.381,2.688,2.611,2.611,0,0,0,2.611-2.458Z" transform="translate(64.604 35.636)" fill="#fff"/>
  <path id="Path_16" data-name="Path 16" d="M46.663,43.327c-3.686-.845-7.3-1.536-10.905-2.381-.307,0-.768-.614-.768-1V17.292c6.451,2.688,11.827-1.766,18.048-3.072-2.15,9.753-4.224,19.276-6.374,29.107ZM39.521,29.81a2.492,2.492,0,0,0-2.534,2.458,2.46,2.46,0,0,0,2.381,2.458A2.508,2.508,0,0,0,41.9,32.191a2.46,2.46,0,0,0-2.381-2.458Z" transform="translate(233.806 95.059)" fill="#fff"/>
  <path id="Path_17" data-name="Path 17" d="M11.55,14.42c5.913,2.611,11.6,3.917,17.971,2.3v8.909c0,4.608-.077,9.293-.23,13.9a2.055,2.055,0,0,1-.922,1.613c-3.379.845-6.758,1.536-10.368,2.381-2.15-9.677-4.224-19.2-6.374-29.107ZM25.143,30.01a2.508,2.508,0,0,0-2.534,2.534A2.5,2.5,0,0,0,27.6,32.7a2.556,2.556,0,0,0-2.458-2.611Z" transform="translate(77.229 96.395)" fill="#fff"/>
  <path id="Path_18" data-name="Path 18" d="M18.819,39.137c-6.221,1.69-10.214-2-8.985-8.064.691-3.533,2.534-6.451,5.146-9.523-.23,1.306-.384,2.15-.461,2.918A8.042,8.042,0,0,0,17.052,31a17.534,17.534,0,0,0,9.369,4.838c.538.077,1.152.23,1.766.307a1.32,1.32,0,0,1-.077.614c-2.381,5.453-1.306,9.984,3.917,12.825,3.3,1.843,7.142,2.765,10.752,4.07.538.154,1.075.23,1.536.384v.538c-3.226,0-6.528-.23-9.753,0a20.962,20.962,0,0,1-10.829-2.15,18.26,18.26,0,0,1-3.149-1.766A7.205,7.205,0,0,1,17.9,41.441c.307-.691.614-1.382,1-2.3Z" transform="translate(64.278 144.022)" fill="#fff"/>
  <path id="Path_19" data-name="Path 19" d="M22.684,30.33c-4.454-1.843-5.837-6.067-8.064-9.6,4.685,3.686,10.137,5.146,15.821,6.144A5.174,5.174,0,0,1,34.357,33.4c-.538,2-1.306,3.917-1.843,5.837a4.421,4.421,0,0,0,1.843,5.222c3.84,2.765,7.68,5.453,11.52,8.217a3.421,3.421,0,0,1,1.382,1.382c-2.611-1.075-5.222-2.074-7.757-3.3-3.61-1.766-7.219-3.456-10.6-5.529-6.221-3.84-7.833-7.91-6.3-14.976Z" transform="translate(97.737 138.545)" fill="#fff"/>
  <path id="Path_20" data-name="Path 20" d="M34.642,15.805c-1.229-.307-2.15-.461-3.3-.768.23-1.306.461-2.458.768-3.686.691-3.072,1.306-6.144,2-9.216.384-1.69,1.306-2.381,3-2.074,3.149.614,6.221,1.382,9.369,2.074a2.032,2.032,0,0,1,1.69,2.534c-.922,4.378-1.92,8.832-2.918,13.363-2.381-.538-4.608-1-6.912-1.536C39.25,12.273,40.1,8.126,41.017,3.9c-1.229-.23-2.3-.461-3.533-.768-.922,4.224-1.843,8.294-2.842,12.595Z" transform="translate(209.424 0.009)" fill="#fff"/>
  <path id="Path_21" data-name="Path 21" d="M32.183,15.226c-1.152.23-2.15.461-3.379.768C27.882,11.77,26.961,7.7,25.962,3.475c-1.229.23-2.3.461-3.533.691.922,4.224,1.766,8.371,2.688,12.595-2.3.538-4.531,1-6.912,1.613-1-4.608-2.074-9.139-2.842-13.67a2.936,2.936,0,0,1,1.613-2.227C20.125,1.555,23.428.941,26.653.25a1.976,1.976,0,0,1,2.534,1.459C30.263,6.163,31.184,10.618,32.183,15.226Z" transform="translate(102.676 1.357)" fill="#fff"/>
  <path id="Path_22" data-name="Path 22" d="M34.488,36.6c-9.523.23-18.585.384-27.724.538a.582.582,0,0,0-.154-.307c.538-.307,1.075-.538,1.613-.845,2.688-1.229,5.3-2.611,8.064-3.686a19.581,19.581,0,0,0,8.371-6.374c1.69-2.227,2.534-2.15,4.378,0,2.611,3,4.07,6.6,5.376,10.675Z" transform="translate(44.231 162.3)" fill="#fff"/>
  <path id="Path_23" data-name="Path 23" d="M24.26,40.144c2.918-.538,5.606-.845,8.217-1.536,9.83-2.688,16.358-9.139,20.428-18.278a5.156,5.156,0,0,1,.461-1.152,5.288,5.288,0,0,1,.845-1c.307.384.845.691,1,1.152a12.43,12.43,0,0,1-.154,7.833c-2.688,8.064-8.294,12.441-16.665,13.517A48.671,48.671,0,0,1,24.26,40.3Z" transform="translate(162.131 121.511)" fill="#fff"/>
  <path id="Path_24" data-name="Path 24" d="M20.137,41.54a23.581,23.581,0,0,1,0-3.3c.077-.461.845-.922,1.306-1.075,2.381-.614,4.762-1.075,7.373-1.69-1.459-6.835-2.918-13.44-4.378-20.121,1.306-.23,2.458-.461,3.917-.691.691,2.918,1.382,5.913,2,8.909.845,3.763,1.69,7.526,2.458,11.289.691,3.072.154,3.84-2.918,4.531-3.149.691-6.3,1.382-9.83,2.15Z" transform="translate(134.075 97.998)" fill="#fff"/>
  <path id="Path_25" data-name="Path 25" d="M31.42,14.857c1.382.077,2.534.23,3.917.307-1.306,6.067-2.611,11.981-3.917,18.048,2.15.461,4.07,1,6.067,1.382,3.072.691,2.458.307,2.458,3.226a8.879,8.879,0,0,1-.077,1.306c-3.149-.691-6.144-1.306-9.216-2-3.533-.845-3.994-1.459-3.226-4.992,1.229-5.453,2.381-10.982,3.61-16.435,0-.307.23-.538.384-.922Z" transform="translate(181.159 98.799)" fill="#fff"/>
  <path id="Path_26" data-name="Path 26" d="M30.5,28.163C32.343,19.638,34.186,11.5,35.953,3.28c1.536.23,2.842.461,4.378.691-.691,3.533-1.306,6.912-1.92,10.214-.691,3.456-1.306,6.989-2.15,10.445A2.979,2.979,0,0,1,34.8,26.4a40.054,40.054,0,0,1-4.3,1.843Z" transform="translate(203.813 21.981)" fill="#fff"/>
  <path id="Path_27" data-name="Path 27" d="M21.478,3.47c1.766,8.064,3.533,15.974,5.222,23.808-3.149.154-5.453-1.536-5.99-4.378-1.075-5.606-2.227-11.213-3.3-16.9A18.422,18.422,0,0,0,17.1,4.161c1.382-.23,2.688-.461,4.3-.691Z" transform="translate(114.303 23.25)" fill="#fff"/>
  <path id="Path_28" data-name="Path 28" d="M21.29,19.47c3.149,12.749,13.286,16.281,24.345,18.585v.461c-2.534.154-5.069.384-7.6.384a19.649,19.649,0,0,1-11.981-3.917c-5.146-3.994-5.837-9.523-4.685-15.437Z" transform="translate(139.604 130.128)" fill="#fff"/>
  <path id="Path_29" data-name="Path 29" d="M25.59,13.942a13.025,13.025,0,0,1,6.758-5.683,22.16,22.16,0,0,1,18.585.691c.461.23,1.152.845,1.075,1.152a2.075,2.075,0,0,1-1.075,1.613,7.969,7.969,0,0,1-3.763.461c-4.378-.922-8.832-1.69-13.286-.768a72.764,72.764,0,0,0-8.294,2.534Z" transform="translate(171.015 43.805)" fill="#fff"/>
  <path id="Path_30" data-name="Path 30" d="M23.749,27.86c-2.3.461-4.531,1.075-6.758,1.382-1.843.307-2.688-.384-3.072-2.227-.461-2.074-.922-4.07-1.459-6.451,3.533-.768,6.912-1.536,10.445-2.3.307,3.226.614,6.221.922,9.523Z" transform="translate(83.308 122.045)" fill="#fff"/>
  <path id="Path_31" data-name="Path 31" d="M35,18.127c3.763.845,7.142,1.536,10.905,2.381-.614,2.534-1,4.992-1.766,7.373-.384,1.229-1.536,1.613-2.842,1.306-1.613-.307-3.3-.691-4.915-1.075-.384-.077-.922-.538-.922-.845-.23-3-.307-5.99-.461-9.216Z" transform="translate(233.872 120.643)" fill="#fff"/>
  <path id="Path_32" data-name="Path 32" d="M48.988,42.068c-2.458,1.766-5.222,3.456-7.68,5.453-2.918,2.381-3.226,4.838-1.69,8.217.307.614.538,1.152.922,1.92-6.681,3.917-14.131,5.453-21.35,7.3-1.613-2.611-1.613-2.458-3.994-.614A25.671,25.671,0,0,1-.01,69.716c2.842-.845,6.3-1.69,9.6-3a20.455,20.455,0,0,0,5.453-3.456c2.074-1.69,2.918-1.69,4.685.461,6.528-1.613,13.133-3.3,19.123-6.374v-.384c-2.15-6.067-1.229-8.832,4.3-12.518,1.382-.922,2.842-1.766,4.3-2.611C42.69,34.465,44.61,24.482,51.676,19.72c-5.3,6.912-9.523,13.9-2.765,22.195Z" transform="translate(0.01 131.798)" fill="#fff"/>
  <path id="Path_33" data-name="Path 33" d="M35.428,4.394C34.2,9.847,33.047,15.223,31.9,20.522c-2.765-.922-3.61-2.458-3.072-4.992l1.613-7.6c.614-2.765,1.766-3.61,4.992-3.533Z" transform="translate(191.589 29.391)" fill="#fff"/>
  <path id="Path_34" data-name="Path 34" d="M19.407,4.67c2.765-.384,4.3.614,4.838,3,.614,2.688,1.152,5.376,1.766,8.141.538,2.381-.461,4.07-3.149,4.838-1.152-5.3-2.3-10.675-3.533-15.974Z" transform="translate(129.199 30.729)" fill="#fff"/>
  <path id="Path_35" data-name="Path 35" d="M20.588,14.63c1.382,6.067,2.688,12.211,4.07,18.432-1.536.461-2.918.845-4.608,1.306V14.784Z" transform="translate(134.008 97.797)" fill="#fff"/>
  <path id="Path_36" data-name="Path 36" d="M51.689,42.706c2.074.614,4.3.922,6.067,2,1.766,1,3.226,2.688,4.838,4.147,1.843-1.613,3.917-1.459,5.99-.845,1.536.461,3.072,1,4.608,1.536a25.654,25.654,0,0,1,4.378,1.69,13.454,13.454,0,0,1-3.072-.307c-2.688-.691-5.3-1.613-7.987-2.3a2.746,2.746,0,0,0-3.379,1.69,27.686,27.686,0,0,1-3.226-2.534c-2.381-2.381-4.992-4.224-8.678-3.379-1,.23-1.536-.154-1.075-1.306,1.613-4.608.614-6.067-4.531-6.682C47,31.417,48.464,26.348,44.47,21.74c3.072,1.382,3.763,4.992,2.534,13.593,5.3,2.15,6.067,3.533,4.685,7.373Z" transform="translate(297.131 145.291)" fill="#fff"/>
  <path id="Path_37" data-name="Path 37" d="M38.927,8.837c6.758,3.072,9.446,10.829,6.528,19.123-.614-2.381-1.843-4.838-1.766-7.219.154-4.147-1.843-7.219-4.07-10.368A10.407,10.407,0,0,1,38.85,8.76Z" transform="translate(259.59 58.587)" fill="#fff"/>
  <path id="Path_38" data-name="Path 38" d="M9.841,37.867c-1.766-3.149-2.918-6.6-2.15-10.291A6.516,6.516,0,0,1,9.611,24.2c2.611-2.15,5.837-3.3,9.523-4.147-8.141,5.529-10.291,9.83-9.293,17.817Z" transform="translate(49.832 134.002)" fill="#fff"/>
  <path id="Path_39" data-name="Path 39" d="M32.531,14.894V32.02c-1.459-.384-2.765-.768-4.3-1.152,1.229-5.453,2.381-10.752,3.61-16.128A2.242,2.242,0,0,1,32.531,14.894Z" transform="translate(188.65 98.532)" fill="#fff"/>
  <path id="Path_40" data-name="Path 40" d="M12.247,24.99A17.808,17.808,0,0,1,9.482,13.47c1.306.538,2.381,1,3.686,1.536C12.861,18.155,12.631,21.3,12.247,24.99Z" transform="translate(63.093 90.049)" fill="#fff"/>
  <path id="Path_41" data-name="Path 41" d="M19.723,15.58A10.548,10.548,0,0,1,17.8,27.1c-1.92,2.15-4.224,3.763-7.6,3.149,6.3-1.306,8.141-5.99,8.985-11.366.154-.922.307-1.92.614-3.3Z" transform="translate(68.212 104.143)" fill="#fff"/>
  <path id="Path_42" data-name="Path 42" d="M22.18,8.13c6.221.461,11.673,2.918,16.742,6.451-2.381.614-3.84-1.229-5.606-1.843-1.843-.691-3.686-1.536-5.53-2.227-1.843-.768-3.763-1.536-5.606-2.3Z" transform="translate(148.236 54.378)" fill="#fff"/>
  <path id="Path_43" data-name="Path 43" d="M12.66,30.858c-4.608-3.994-4.378-9.523.307-12.518C9.434,22.334,11.047,26.4,12.66,30.858Z" transform="translate(62.372 122.58)" fill="#fff"/>
  <path id="Path_44" data-name="Path 44" d="M23.832,20.868c-1-.614-2.074-1.229-3.3-2,2.458-1.459,2.611.768,3.533,1.613a1.678,1.678,0,0,1-.23.384Z" transform="translate(137.215 122.894)" fill="#fff"/>
</svg>
