<svg xmlns="http://www.w3.org/2000/svg" xmlns:xlink="http://www.w3.org/1999/xlink" width="62.068" height="67.437" viewBox="0 0 62.068 67.437">
  <defs>
    <filter id="Path_273" x="0" y="0" width="62.068" height="67.437" filterUnits="userSpaceOnUse">
      <feOffset dy="5" input="SourceAlpha"/>
      <feGaussianBlur stdDeviation="3" result="blur"/>
      <feFlood flood-color="#d10532"/>
      <feComposite operator="in" in2="blur"/>
      <feComposite in="SourceGraphic"/>
    </filter>
  </defs>
  <g transform="matrix(1, 0, 0, 1, 0, 0)" filter="url(#Path_273)">
    <path id="Path_273-2" data-name="Path 273" d="M20.18,14.026l2.427,2.824a.963.963,0,0,0,.195-1.169L21.365,14.01a.963.963,0,0,0-1.185.017ZM3.279,7.972,7.718,4.157A.54.54,0,0,0,7.776,3.4L6.759,2.214A.54.54,0,0,0,6,2.156L1.56,5.971a.54.54,0,0,0-.057.761L2.519,7.914a.54.54,0,0,0,.761.057ZM5.495,3.335,6.118,2.8,7.1,3.942l-.624.536ZM1.423,1.328,2.046.792,3.994,3.059l.581-.5L2.521.169A.48.48,0,0,0,1.844.118L.169,1.558a.48.48,0,0,0-.051.677l2.054,2.39,1.2-1.03L1.423,1.328ZM23.8,37.187,10.019,21.149a.239.239,0,0,0-.337-.026l-3.025,2.6,14.095,16.4,3.025-2.6A.239.239,0,0,0,23.8,37.187Zm-2.389.393a.559.559,0,1,1,.051-.679A.559.559,0,0,1,21.413,37.581ZM10,24.3a.559.559,0,1,1,.051-.679A.559.559,0,0,1,10,24.3ZM13.066,10.38,8.627,14.2a.54.54,0,0,0-.057.761l1.016,1.183a.54.54,0,0,0,.761.057l4.439-3.815a.54.54,0,0,0,.057-.761l-1.016-1.183A.54.54,0,0,0,13.066,10.38Zm1.1,1.786-.624.536-.981-1.142.624-.536Zm2.41-.472L5.345,21.347a.553.553,0,0,0-.059.78l.962,1.119,3.025-2.6a.868.868,0,0,1,1.223.093L24.279,36.778A.868.868,0,0,1,24.186,38l-3.025,2.6,1.012,1.178a.553.553,0,0,0,.78.059l11.232-9.653a.553.553,0,0,0,.059-.78L17.357,11.753a.553.553,0,0,0-.78-.059Zm16.16,20.578h0l-9.718,8.351,9.2-8.954L16.79,13.715l-.783.593L28.464,29.491,15.349,14.807,6.554,21.465,16.9,12.577,33.361,31.737ZM8.215,13.715,12.654,9.9a.54.54,0,0,0,.057-.761L8.886,4.689a.54.54,0,0,0-.761-.057L3.687,8.446a.54.54,0,0,0-.057.761l3.825,4.451A.54.54,0,0,0,8.215,13.715Zm-2.168-5.5,4.281.324-1.994-3.1,2.724,3.153h0l.719.837-2.7,2.318L6.047,8.212Zm-1.49.707.583-.5,3.321,3.865-.583.5Z" transform="matrix(0.97, 0.26, -0.26, 0.97, 19.86, 4)" fill="#fff"/>
  </g>
</svg>
